<?xml version="1.0" encoding="UTF-8"?><svg id="Layer_1" xmlns="http://www.w3.org/2000/svg" xmlns:xlink="http://www.w3.org/1999/xlink" viewBox="0 0 336 374"><defs><style>.cls-1{fill:url(#linear-gradient-2);}.cls-2{fill:#f15a29;}.cls-3{stroke:#f15a29;stroke-width:.65px;}.cls-3,.cls-4,.cls-5,.cls-6{fill:none;}.cls-3,.cls-4,.cls-5,.cls-6,.cls-7{stroke-miterlimit:10;}.cls-8{fill:#f1f2f2;}.cls-4{stroke-width:.6px;}.cls-4,.cls-5,.cls-6{stroke:#f1f2f2;}.cls-9{fill:#414042;filter:url(#outer-glow-1);}.cls-5{stroke-width:1.09px;}.cls-6{stroke-width:1.02px;}.cls-7{fill:#fff;stroke:#e63946;stroke-width:3px;}.cls-10{fill:url(#linear-gradient-3);}.cls-11{fill:url(#linear-gradient);}.cls-12{fill:#e63946;}.cls-13{fill:url(#linear-gradient-4);}</style><filter id="outer-glow-1" filterUnits="userSpaceOnUse"><feOffset dx="0" dy="0"/><feGaussianBlur result="blur" stdDeviation="4.05"/><feFlood flood-color="#000" flood-opacity=".85"/><feComposite in2="blur" operator="in"/><feComposite in="SourceGraphic"/></filter><linearGradient id="linear-gradient" x1="27.72" y1="176.17" x2="123.68" y2="176.17" gradientUnits="userSpaceOnUse"><stop offset=".27" stop-color="#f15a29"/><stop offset="1" stop-color="#414042"/></linearGradient><linearGradient id="linear-gradient-2" y1="199.28" y2="199.28" xlink:href="#linear-gradient"/><linearGradient id="linear-gradient-3" y1="222.4" y2="222.4" xlink:href="#linear-gradient"/><linearGradient id="linear-gradient-4" y1="245.51" y2="245.51" xlink:href="#linear-gradient"/></defs><rect class="cls-7" x="3.01" y="1.5" width="330" height="371" rx="31.74" ry="31.74"/><rect class="cls-12" x="76.68" y="1.5" width="27.5" height="371"/><rect class="cls-9" x="12.37" y="99.45" width="311.28" height="175.09" rx="13.91" ry="13.91"/><g><path class="cls-8" d="M49.31,120.26v3.11H27.72v-3.11h21.59Z"/><path class="cls-8" d="M48.25,130.97v1.51h-2.95v3h-1.81v-7.49h1.81v2.99h2.95Zm1.18-2.99h1.8v7.49h-1.8v-7.49Z"/><path class="cls-8" d="M59.51,127.99v1.51h-6.69v-1.51h6.69Zm0,3v1.5h-6.69v-1.5h6.69Zm0,2.98v1.51h-6.65v-1.51h6.65Z"/><path class="cls-8" d="M61.08,132.66v-1.5h4.2c.68,0,1.03-.42,1.03-.83s-.34-.83-1.03-.83h-4.2v-1.51h4.51c1.65,0,2.46,1.17,2.46,2.34,0,.91-.5,1.83-1.51,2.18l2.3,2.96h-2.26l-1.98-2.81h-3.53Z"/><path class="cls-8" d="M69.97,127.99h1.81l4.33,7.49h-1.8l-2.54-4.44v4.44h-1.81v-7.49Zm7.61,0h1.81v7.49h-1.81v-4.44l-1.31,2.28-.91-1.47,2.21-3.86Z"/><path class="cls-8" d="M85.05,135.72c-1.97,0-4.27-1.32-4.27-3.99s2.3-3.99,4.27-3.99,4.27,1.32,4.27,3.99-2.31,3.99-4.27,3.99Zm0-6.27c-1.12,0-2.43,.75-2.43,2.28s1.31,2.27,2.43,2.27,2.42-.74,2.42-2.27-1.31-2.28-2.42-2.28Z"/><path class="cls-8" d="M97.24,130.34c-.68-.6-1.98-.97-2.98-.97-.79,0-1.39,.22-1.39,.74,0,1.31,5.27,.32,5.27,3.31,0,1.65-1.71,2.31-3.57,2.31-1.52,0-3.15-.44-4.05-1.14l.89-1.5c.71,.65,2.21,1.06,3.35,1.06,.79,0,1.41-.21,1.41-.68,0-1.36-5.25-.42-5.25-3.38,0-1.65,1.54-2.29,3.27-2.29,1.43,0,3,.43,3.94,1.1l-.88,1.46Z"/><path class="cls-8" d="M107.57,127.99v1.5h-8.36v-1.5h8.36Zm-5.08,2.67h1.81v4.81h-1.81v-4.81Z"/><path class="cls-8" d="M110.53,127.88h1.83l3.62,7.6h-1.92l-2.62-5.46-2.62,5.46h-1.92l3.63-7.6Z"/><path class="cls-8" d="M123.68,127.99v1.5h-8.36v-1.5h8.36Zm-5.08,2.67h1.81v4.81h-1.81v-4.81Z"/><path class="cls-2" d="M37.86,135.22c0,1.4,0,2.79,0,4.19,0,.29-.06,.47-.34,.63-.79,.46-1.13,1.35-.89,2.2,.23,.81,1.08,1.45,1.92,1.43,.84-.02,1.64-.64,1.86-1.44,.24-.87-.09-1.74-.88-2.2-.27-.16-.34-.33-.34-.62,0-2.76,0-5.52,0-8.28,0-.14,0-.28,0-.42-.05-.39-.25-.63-.66-.64-.39,0-.59,.23-.65,.59-.02,.14-.02,.28-.02,.42,0,1.38,0,2.76,0,4.14Z"/><rect class="cls-2" x="31.98" y="126.8" width="3.63" height=".7"/><rect class="cls-2" x="33.38" y="129.26" width="2.23" height=".7"/><rect class="cls-2" x="33.38" y="134.17" width="2.23" height=".7"/><rect class="cls-2" x="31.98" y="131.72" width="3.63" height=".7"/><rect class="cls-2" x="31.98" y="136.62" width="3.63" height=".7"/><path class="cls-8" d="M40.99,139.3c-.23-.22-.29-.43-.29-.73,0-3.91,0-7.81,0-11.72,0-.9,.16-2.31-.77-2.35-.66-.03-2.01-.03-2.83-.03-1.02,0-.73,1.71-.73,2.55,0,1.92,0,3.84,0,5.77,0,1.92,0,3.84,0,5.77,0,.29-.06,.51-.29,.74-1.1,1.1-1.29,2.81-.5,4.15,.8,1.35,2.39,2,3.88,1.57,1.51-.43,2.55-1.8,2.53-3.34-.01-.92-.34-1.73-1-2.37Zm-3.91-13.73c0-.18,.15-.33,.33-.33h2.19c.18,0,.33,.15,.33,.33v.88c.01,.21,0,.41,0,.56,0,3.98,0,7.97,0,11.95,0,.3,.07,.5,.32,.7,.67,.53,1,1.27,.98,2.12-.03,1.28-.95,2.36-2.18,2.61-1.18,.24-2.43-.39-2.98-1.49-.57-1.13-.3-2.43,.71-3.27,.23-.19,.31-.37,.31-.66-.01-2.02,0-4.03,0-6.05"/><path class="cls-2" d="M85.05,142.15v-.56h1.68c.23,0,.35-.16,.35-.32s-.12-.32-.35-.32h-1.68v-.51h1.43c.23,0,.35-.15,.35-.31s-.12-.31-.35-.31h-1.43v-.52h1.57c.59,0,.89,.41,.89,.82,0,.17-.05,.34-.15,.48,.26,.17,.39,.45,.39,.72,0,.41-.3,.82-.87,.82h-1.83Z"/><path class="cls-2" d="M88.9,139.31l1.12,1.68v1.16h-.69v-1.14l-1.23-1.7h.8Zm1.55,0h.8l-.89,1.18-.4-.47,.49-.71Z"/><path class="cls-2" d="M94.48,140.45v.57h-1.12v1.14h-.69v-2.84h.69v1.13h1.12Zm.45-1.13h.68v2.84h-.68v-2.84Z"/><path class="cls-2" d="M97.77,142.25c-.75,0-1.62-.5-1.62-1.51s.87-1.51,1.62-1.51,1.62,.5,1.62,1.51-.88,1.51-1.62,1.51Zm0-2.38c-.43,0-.92,.28-.92,.86s.49,.86,.92,.86,.92-.28,.92-.86-.49-.86-.92-.86Z"/><path class="cls-2" d="M99.88,139.31h.69v1.69c0,.41,.37,.62,.75,.62s.75-.21,.75-.62v-1.69h.69v1.69c0,.84-.72,1.26-1.44,1.26s-1.44-.42-1.44-1.26v-1.69Z"/><path class="cls-2" d="M105.79,140.21c-.26-.23-.75-.37-1.13-.37-.3,0-.53,.09-.53,.28,0,.49,2,.12,2,1.25,0,.62-.65,.88-1.36,.88-.58,0-1.19-.17-1.54-.43l.34-.57c.27,.25,.84,.4,1.27,.4,.3,0,.54-.08,.54-.26,0-.52-1.99-.16-1.99-1.28,0-.62,.58-.87,1.24-.87,.54,0,1.14,.16,1.49,.42l-.33,.55Z"/><path class="cls-2" d="M109.2,139.31v.57h-2.54v-.57h2.54Zm0,1.14v.57h-2.54v-.57h2.54Zm0,1.13v.57h-2.52v-.57h2.52Z"/><path class="cls-2" d="M111.31,139.22c.57,0,1.05,.23,1.36,.62l-.51,.44c-.18-.23-.51-.41-.82-.41-.6,0-.91,.43-.91,.86s.3,.85,.91,.85c.4,0,.65-.19,.82-.42l.51,.44c-.31,.39-.8,.64-1.36,.64-.73,0-1.59-.52-1.59-1.51s.86-1.51,1.59-1.51Z"/><path class="cls-2" d="M114.69,142.25c-.75,0-1.62-.5-1.62-1.51s.87-1.51,1.62-1.51,1.62,.5,1.62,1.51-.88,1.51-1.62,1.51Zm0-2.38c-.43,0-.92,.28-.92,.86s.49,.86,.92,.86,.92-.28,.92-.86-.49-.86-.92-.86Z"/><path class="cls-2" d="M116.84,139.31h.69l1.64,2.84h-.68l-.96-1.68v1.68h-.69v-2.84Zm2.88,0h.69v2.84h-.69v-1.68l-.49,.86-.34-.56,.84-1.46Z"/></g><rect class="cls-11" x="27.72" y="170" width="95.96" height="12.33"/><rect class="cls-1" x="27.72" y="193.11" width="95.96" height="12.33"/><rect class="cls-10" x="27.72" y="216.23" width="95.96" height="12.33"/><rect class="cls-13" x="27.72" y="239.35" width="95.96" height="12.33"/><g><path class="cls-8" d="M33.62,221.45c0-.39,0-.77,0-1.16,0-.82,.61-1.45,1.4-1.45,.8,0,1.4,.62,1.41,1.46,0,.79,0,1.57,0,2.36,0,.69-.47,1.25-1.14,1.39-.63,.12-1.28-.22-1.54-.82-.08-.19-.12-.39-.12-.59,0-.39,0-.79,0-1.18Z"/><path class="cls-8" d="M35.03,225.95c-.34,0-.68,0-1.02,0-.15,0-.3-.03-.29-.21,0-.18,.15-.21,.3-.21,.2,0,.39,0,.59,0,.14,0,.2-.04,.2-.19,.01-.47,.02-.47-.42-.6-.83-.25-1.45-1.04-1.51-1.9,0-.07,0-.15,.02-.21,.03-.1,.11-.15,.21-.14,.09,0,.16,.06,.18,.16,.02,.08,.03,.17,.04,.25,.08,.86,.82,1.51,1.72,1.51,.89,0,1.62-.65,1.7-1.51,0-.08,.02-.16,.03-.23,.02-.11,.09-.18,.2-.17,.11,0,.18,.07,.2,.18,.02,.12,0,.23-.02,.35-.15,.9-.81,1.6-1.7,1.77-.17,.03-.21,.1-.21,.26,.01,.57-.06,.47,.48,.48,.12,0,.25,0,.37,0,.14,0,.24,.06,.24,.2,0,.14-.1,.21-.24,.21-.35,0-.71,0-1.06,0,0,0,0,0,0,0Z"/></g><path class="cls-8" d="M33.12,243.29c0-.1-.06-.17-.1-.26-.06-.1-.11-.2-.07-.32,.05-.16,.49-.44,.66-.41,.11,.02,.19,.07,.24,.17,.03,.06,.07,.11,.1,.17,.07,.13,.19,.16,.32,.14,.13-.02,.21-.1,.24-.22,.02-.09,.01-.18,.02-.27,0-.19,.12-.32,.31-.33,.12,0,.24,0,.36,0,.19,.01,.31,.14,.31,.33,0,.09,0,.18,.02,.27,.03,.13,.12,.2,.24,.22,.13,.02,.24-.01,.32-.13,.04-.07,.08-.13,.12-.2,.1-.15,.27-.19,.43-.11,.11,.06,.21,.12,.32,.18,.16,.1,.2,.27,.12,.43-.03,.05-.06,.11-.09,.16-.08,.15-.07,.28,.04,.39,.11,.12,.24,.13,.4,.04,.06-.03,.11-.07,.17-.09,.16-.07,.32-.03,.41,.12,.07,.11,.13,.22,.19,.34,.08,.15,.03,.31-.11,.41-.06,.04-.12,.07-.18,.11-.14,.08-.19,.2-.16,.35,.03,.13,.13,.23,.28,.24,.07,0,.14,0,.21,0,.19,0,.32,.12,.33,.3,0,.13,0,.25,0,.38-.01,.19-.14,.31-.34,.31-.09,0-.19,0-.28,.02-.12,.04-.19,.12-.21,.24-.02,.12,.01,.23,.12,.31,.06,.04,.13,.08,.2,.12,.16,.1,.2,.27,.11,.43-.06,.11-.12,.21-.18,.32-.1,.15-.26,.2-.42,.12-.07-.03-.13-.08-.2-.11-.13-.06-.26-.04-.36,.06-.1,.1-.12,.23-.06,.36,.03,.07,.08,.13,.11,.2,.08,.16,.04,.32-.11,.41-.11,.07-.22,.14-.34,.2-.16,.08-.32,.04-.42-.11-.04-.06-.07-.12-.11-.18-.08-.13-.19-.18-.34-.15-.13,.02-.22,.12-.24,.27-.01,.08,0,.15,0,.23,0,.18-.12,.31-.3,.32-.13,0-.26,0-.39,0-.18-.01-.3-.14-.3-.33,0-.09,0-.18-.02-.27-.03-.13-.11-.2-.24-.23-.13-.02-.25,.01-.32,.14-.03,.06-.07,.12-.11,.18-.11,.16-.27,.21-.44,.11-.1-.05-.2-.11-.3-.17-.17-.1-.21-.26-.13-.44,.03-.07,.08-.13,.11-.2,.06-.13,.04-.25-.07-.35-.1-.1-.22-.12-.35-.06-.07,.03-.13,.08-.2,.11-.16,.08-.33,.04-.42-.11-.07-.11-.13-.22-.19-.34-.07-.14-.03-.3,.1-.4,.06-.04,.12-.08,.19-.11,.14-.08,.19-.2,.16-.35-.03-.13-.14-.23-.29-.24-.07,0-.14,0-.21,0-.19,0-.32-.12-.33-.31,0-.13,0-.25,0-.38,.01-.19,.14-.3,.34-.31,.09,0,.19,0,.28-.02,.12-.04,.19-.12,.21-.24,.02-.12-.01-.23-.12-.31-.06-.04-.13-.07-.19-.11-.16-.11-.21-.27-.12-.44,.05-.1,.11-.2,.17-.3,.11-.17,.28-.22,.46-.12,.07,.04,.14,.08,.21,.11,.19,.08,.42-.08,.42-.29Zm.46,2.21c0,.8,.65,1.45,1.44,1.46,.81,0,1.46-.65,1.46-1.44,0-.8-.65-1.45-1.44-1.46-.81,0-1.46,.65-1.46,1.45Z"/><g><path class="cls-8" d="M35.03,174.41c.96,0,1.75,.8,1.75,1.76,0,.97-.8,1.76-1.77,1.76-.96,0-1.75-.8-1.74-1.77,0-.96,.8-1.75,1.76-1.75Zm1.16,1.75c0-.65-.51-1.14-1.17-1.14-.64,0-1.14,.51-1.14,1.15,0,.66,.51,1.16,1.17,1.16,.65,0,1.14-.51,1.14-1.16Z"/><path class="cls-8" d="M32.08,176.49c-.11,0-.24,0-.37-.03-.16-.03-.25-.13-.25-.3,0-.16,.09-.27,.25-.29,.26-.03,.51-.03,.77,0,.16,.02,.24,.14,.24,.3,0,.16-.09,.27-.25,.3-.13,.02-.26,.02-.4,.02Z"/><path class="cls-8" d="M35.33,173.23c0,.12,0,.23,0,.35-.02,.18-.14,.29-.3,.29-.16,0-.29-.11-.31-.28-.02-.24-.03-.48,0-.71,.02-.17,.16-.28,.31-.27,.17,.01,.27,.12,.29,.28,.01,.11,0,.23,0,.35,0,0,0,0,0,0Z"/><path class="cls-8" d="M35.35,179.1c-.01,.13,0,.26-.03,.38-.04,.16-.14,.25-.3,.24-.16,0-.26-.09-.28-.24-.04-.26-.04-.53,0-.79,.03-.16,.15-.24,.31-.24,.15,0,.25,.1,.28,.25,.02,.13,.02,.26,.03,.38Z"/><path class="cls-8" d="M37.96,175.86c.12,0,.23-.01,.35,0,.17,.02,.29,.16,.28,.31-.01,.17-.11,.27-.28,.29-.23,.03-.46,.03-.7,0-.18-.02-.3-.15-.29-.32,0-.16,.12-.27,.3-.29,.11,0,.22,0,.33,0,0,0,0,0,0,0Z"/><path class="cls-8" d="M33.5,174.32c0,.25-.26,.4-.45,.27-.22-.15-.41-.35-.58-.56-.1-.12-.08-.27,.04-.38,.12-.11,.26-.13,.38-.02,.19,.17,.36,.36,.54,.55,.04,.05,.06,.11,.06,.15Z"/><path class="cls-8" d="M33.5,177.99c0,.09-.04,.17-.1,.24-.15,.15-.29,.3-.44,.44-.15,.14-.33,.14-.46,.01-.11-.12-.1-.3,.04-.44,.15-.15,.3-.3,.46-.45,.1-.09,.22-.11,.34-.04,.1,.05,.15,.14,.16,.25Z"/><path class="cls-8" d="M37.31,173.56c.14,0,.23,.06,.28,.15,.06,.11,.06,.23-.02,.33-.17,.19-.35,.38-.55,.54-.12,.09-.24,.08-.35-.02-.11-.1-.14-.23-.06-.35,.16-.24,.37-.44,.6-.62,.04-.03,.09-.03,.11-.03Z"/><path class="cls-8" d="M37.63,178.44c0,.15-.06,.24-.16,.29-.11,.06-.22,.05-.31-.02-.2-.16-.38-.33-.53-.53-.09-.12-.1-.27,.02-.39,.12-.12,.26-.13,.38-.03,.19,.16,.36,.35,.54,.53,.05,.05,.06,.12,.06,.15Z"/></g><path class="cls-8" d="M35.1,202.84c-.38,0-.75-.05-1.11-.17-.46-.15-.87-.38-1.24-.69-.36-.31-.66-.68-.88-1.1-.21-.4-.34-.82-.39-1.27-.03-.31-.03-.61,.01-.92,.05-.38,.17-.74,.33-1.08,.2-.41,.47-.77,.81-1.07,.39-.35,.84-.62,1.34-.78,.03,0,.06-.02,.08-.03,.01,0,.02,0,.03,0,0,.01,0,.02,0,.03-.11,.19-.2,.39-.26,.59-.07,.22-.13,.45-.15,.68-.04,.35-.02,.7,.06,1.05,.12,.53,.36,1.01,.72,1.42,.28,.33,.62,.59,1,.78,.33,.17,.67,.27,1.04,.32,.29,.04,.59,.04,.88,0,.22-.03,.44-.09,.65-.16,.18-.07,.35-.15,.52-.24,0,0,.02-.02,.03,0,.01,0,0,.03,0,.04-.03,.09-.06,.17-.09,.26-.1,.27-.24,.53-.41,.77-.31,.45-.71,.82-1.18,1.09-.41,.24-.85,.38-1.32,.45-.16,.02-.32,.03-.48,.03Z"/><g><path class="cls-8" d="M42.64,178.62v-4.92h1.36c1.74,0,2.6,.8,2.6,2.4,0,.76-.24,1.37-.72,1.83-.48,.46-1.13,.69-1.94,.69h-1.3Zm.58-4.4v3.88h.73c.65,0,1.15-.17,1.51-.52,.36-.35,.54-.84,.54-1.47,0-1.26-.67-1.89-2.01-1.89h-.77Z"/><path class="cls-8" d="M50.02,178.62h-.56v-.55h-.01c-.24,.42-.61,.63-1.08,.63-.35,0-.62-.09-.82-.28-.2-.19-.3-.43-.3-.74,0-.66,.39-1.04,1.16-1.15l1.05-.15c0-.6-.24-.9-.72-.9-.42,0-.81,.14-1.15,.43v-.58c.35-.22,.74-.33,1.2-.33,.83,0,1.24,.44,1.24,1.31v2.29Zm-.56-1.78l-.85,.12c-.26,.04-.46,.1-.59,.19-.13,.09-.2,.26-.2,.49,0,.17,.06,.31,.18,.42,.12,.11,.29,.16,.49,.16,.28,0,.51-.1,.69-.29,.18-.2,.27-.44,.27-.74v-.35Z"/><path class="cls-8" d="M53.88,175.11l-1.62,4.08c-.29,.73-.69,1.09-1.22,1.09-.15,0-.27-.01-.37-.04v-.5c.12,.04,.23,.06,.33,.06,.28,0,.5-.17,.64-.51l.28-.67-1.37-3.51h.62l.95,2.71s.04,.12,.07,.27h.02c.01-.05,.03-.14,.07-.26l1-2.71h.58Z"/><path class="cls-8" d="M58.98,174.22h-1.92v1.7h1.78v.52h-1.78v2.18h-.58v-4.92h2.5v.52Z"/><path class="cls-8" d="M61.31,178.71c-.52,0-.93-.16-1.24-.49-.31-.33-.47-.76-.47-1.31,0-.59,.16-1.05,.48-1.38,.32-.33,.76-.5,1.31-.5s.93,.16,1.23,.48c.29,.32,.44,.77,.44,1.34s-.16,1.01-.48,1.35-.74,.51-1.28,.51Zm.04-3.21c-.36,0-.65,.12-.86,.37-.21,.25-.32,.59-.32,1.02s.11,.75,.32,.99c.21,.24,.5,.36,.86,.36s.64-.12,.84-.35c.2-.24,.29-.57,.29-1.01s-.1-.78-.29-1.02-.48-.36-.84-.36Z"/><path class="cls-8" d="M65.8,175.68c-.1-.08-.24-.11-.43-.11-.24,0-.44,.11-.6,.34-.16,.23-.24,.54-.24,.93v1.79h-.56v-3.52h.56v.72h.01c.08-.25,.2-.44,.37-.58s.35-.21,.55-.21c.15,0,.26,.02,.34,.05v.58Z"/><path class="cls-8" d="M69.14,177.01h-2.48c0,.39,.11,.69,.32,.91,.2,.21,.48,.32,.83,.32,.4,0,.76-.13,1.09-.39v.53c-.31,.22-.72,.34-1.23,.34s-.89-.16-1.17-.48c-.28-.32-.43-.77-.43-1.35,0-.55,.16-.99,.47-1.34,.31-.34,.7-.52,1.16-.52s.82,.15,1.07,.45c.25,.3,.38,.71,.38,1.24v.3Zm-.58-.48c0-.33-.08-.58-.24-.76-.15-.18-.37-.27-.64-.27s-.49,.1-.68,.29c-.19,.19-.3,.44-.34,.75h1.9Z"/><path class="cls-8" d="M72.39,178.46c-.27,.16-.59,.24-.96,.24-.5,0-.91-.16-1.21-.49s-.46-.75-.46-1.27c0-.58,.17-1.04,.5-1.4s.77-.53,1.33-.53c.31,0,.58,.06,.82,.17v.58c-.26-.18-.54-.27-.84-.27-.36,0-.65,.13-.88,.39-.23,.26-.35,.6-.35,1.01s.11,.74,.32,.98c.22,.24,.51,.36,.87,.36,.31,0,.6-.1,.87-.31v.54Z"/><path class="cls-8" d="M75.76,178.62h-.56v-.55h-.01c-.24,.42-.61,.63-1.08,.63-.35,0-.62-.09-.82-.28-.2-.19-.3-.43-.3-.74,0-.66,.39-1.04,1.16-1.15l1.05-.15c0-.6-.24-.9-.72-.9-.42,0-.81,.14-1.15,.43v-.58c.35-.22,.74-.33,1.2-.33,.83,0,1.24,.44,1.24,1.31v2.29Zm-.56-1.78l-.85,.12c-.26,.04-.46,.1-.59,.19-.13,.09-.2,.26-.2,.49,0,.17,.06,.31,.18,.42,.12,.11,.29,.16,.49,.16,.28,0,.51-.1,.69-.29,.18-.2,.27-.44,.27-.74v-.35Z"/><path class="cls-8" d="M76.61,178.5v-.6c.31,.23,.64,.34,1.01,.34,.49,0,.74-.16,.74-.49,0-.09-.02-.17-.06-.24-.04-.07-.1-.12-.17-.17-.07-.05-.16-.1-.25-.14-.1-.04-.2-.08-.31-.13-.16-.06-.29-.12-.41-.19-.12-.06-.22-.13-.3-.21-.08-.08-.14-.17-.18-.27-.04-.1-.06-.22-.06-.35,0-.16,.04-.31,.11-.44s.18-.23,.3-.32c.13-.09,.27-.15,.43-.19,.16-.04,.33-.07,.5-.07,.3,0,.58,.05,.82,.16v.57c-.26-.17-.56-.25-.89-.25-.11,0-.2,.01-.28,.04-.08,.02-.16,.06-.22,.1-.06,.04-.11,.1-.14,.16-.03,.06-.05,.13-.05,.2,0,.09,.02,.17,.05,.23,.03,.06,.08,.12,.15,.16,.06,.05,.14,.09,.23,.13s.2,.08,.31,.13c.16,.06,.3,.12,.42,.18,.12,.06,.23,.13,.32,.21,.09,.08,.15,.17,.2,.27,.05,.1,.07,.23,.07,.37,0,.17-.04,.33-.12,.45-.08,.13-.18,.23-.31,.32-.13,.08-.28,.15-.44,.19-.17,.04-.34,.06-.53,.06-.36,0-.68-.07-.94-.21Z"/><path class="cls-8" d="M81.43,178.59c-.13,.07-.31,.11-.53,.11-.62,0-.92-.34-.92-1.03v-2.08h-.6v-.48h.6v-.86l.56-.18v1.04h.89v.48h-.89v1.98c0,.24,.04,.4,.12,.5,.08,.1,.21,.15,.4,.15,.14,0,.26-.04,.37-.12v.48Z"/></g><g><path class="cls-8" d="M46.61,201.8h-.71l-2.53-3.92c-.06-.1-.12-.2-.16-.31h-.02c.02,.11,.03,.33,.03,.68v3.56h-.58v-4.92h.75l2.47,3.86c.1,.16,.17,.27,.2,.33h.01c-.02-.14-.03-.38-.03-.72v-3.47h.58v4.92Z"/><path class="cls-8" d="M48.08,197.39c-.1,0-.19-.03-.26-.1-.07-.07-.11-.16-.11-.26s.04-.19,.11-.26,.16-.1,.26-.1,.19,.03,.26,.1c.07,.07,.11,.16,.11,.26s-.04,.19-.11,.26c-.07,.07-.16,.11-.26,.11Zm.27,3.43c0,.32,.12,.48,.37,.48,.1,0,.19-.01,.27-.04v.51s-.1,.02-.17,.03c-.07,.01-.15,.02-.23,.02-.11,0-.22-.02-.32-.05-.1-.04-.18-.09-.26-.17-.07-.08-.13-.17-.17-.28s-.06-.25-.06-.4v-2.63h.56v2.53Z"/><path class="cls-8" d="M52.61,201.52c0,1.29-.62,1.94-1.85,1.94-.44,0-.82-.08-1.14-.25v-.56c.4,.22,.77,.33,1.13,.33,.87,0,1.3-.46,1.3-1.38v-.38h-.01c-.27,.45-.67,.67-1.21,.67-.44,0-.79-.16-1.06-.47-.27-.31-.4-.73-.4-1.26,0-.6,.14-1.07,.43-1.43,.29-.35,.68-.53,1.18-.53s.83,.19,1.05,.57h.01v-.49h.56v3.23Zm-.56-1.31v-.52c0-.28-.09-.52-.28-.72s-.42-.3-.71-.3c-.35,0-.62,.13-.82,.38-.2,.25-.3,.61-.3,1.06,0,.39,.09,.7,.28,.94,.19,.23,.44,.35,.75,.35s.57-.11,.77-.34,.3-.51,.3-.86Z"/><path class="cls-8" d="M56.67,201.8h-.56v-2.03c0-.73-.27-1.1-.82-1.1-.27,0-.51,.11-.69,.32-.19,.21-.28,.48-.28,.82v1.99h-.56v-5.21h.56v2.27h.01c.27-.44,.65-.67,1.15-.67,.79,0,1.19,.48,1.19,1.43v2.17Z"/><path class="cls-8" d="M59.36,201.76c-.13,.07-.31,.11-.53,.11-.62,0-.92-.34-.92-1.03v-2.08h-.6v-.48h.6v-.86l.56-.18v1.04h.89v.48h-.89v1.98c0,.24,.04,.4,.12,.5s.21,.15,.4,.15c.14,0,.26-.04,.37-.12v.48Z"/><path class="cls-8" d="M64.62,197.4h-1.92v1.7h1.78v.52h-1.78v2.18h-.58v-4.92h2.5v.52Z"/><path class="cls-8" d="M66.95,201.88c-.52,0-.93-.16-1.24-.49-.31-.33-.47-.76-.47-1.31,0-.59,.16-1.05,.48-1.38,.32-.33,.76-.5,1.31-.5s.93,.16,1.23,.48c.29,.32,.44,.77,.44,1.34s-.16,1.01-.48,1.35c-.32,.34-.74,.51-1.28,.51Zm.04-3.21c-.36,0-.65,.12-.86,.37-.21,.25-.32,.59-.32,1.02s.11,.75,.32,.99c.21,.24,.5,.36,.86,.36s.64-.12,.84-.35c.2-.24,.29-.57,.29-1.01s-.1-.78-.29-1.02c-.2-.24-.48-.36-.84-.36Z"/><path class="cls-8" d="M71.43,198.85c-.1-.08-.24-.11-.43-.11-.24,0-.44,.11-.6,.34-.16,.23-.24,.54-.24,.93v1.79h-.56v-3.52h.56v.72h.01c.08-.25,.2-.44,.37-.58s.35-.21,.55-.21c.15,0,.26,.02,.34,.05v.58Z"/><path class="cls-8" d="M74.78,200.18h-2.48c0,.39,.11,.69,.32,.91,.2,.21,.48,.32,.83,.32,.4,0,.76-.13,1.09-.39v.53c-.31,.22-.72,.34-1.23,.34s-.89-.16-1.17-.48-.43-.77-.43-1.35c0-.55,.16-.99,.47-1.34,.31-.34,.7-.52,1.16-.52s.82,.15,1.07,.45c.25,.3,.38,.71,.38,1.24v.3Zm-.58-.48c0-.33-.08-.58-.24-.76s-.37-.27-.64-.27-.49,.1-.68,.29-.3,.44-.34,.75h1.9Z"/><path class="cls-8" d="M78.03,201.64c-.27,.16-.59,.24-.96,.24-.5,0-.91-.16-1.21-.49-.31-.33-.46-.75-.46-1.27,0-.58,.17-1.04,.5-1.4,.33-.35,.77-.53,1.33-.53,.31,0,.58,.06,.82,.17v.58c-.26-.18-.54-.27-.84-.27-.36,0-.65,.13-.88,.39-.23,.26-.35,.6-.35,1.01s.11,.74,.32,.98c.22,.24,.51,.36,.87,.36,.31,0,.6-.1,.87-.31v.54Z"/><path class="cls-8" d="M81.39,201.8h-.56v-.55h-.01c-.24,.42-.61,.63-1.08,.63-.35,0-.62-.09-.82-.28s-.3-.43-.3-.74c0-.66,.39-1.04,1.16-1.15l1.05-.15c0-.6-.24-.9-.72-.9-.42,0-.81,.14-1.15,.43v-.58c.35-.22,.74-.33,1.2-.33,.83,0,1.24,.44,1.24,1.31v2.29Zm-.56-1.78l-.85,.12c-.26,.04-.46,.1-.59,.19-.13,.09-.2,.26-.2,.49,0,.17,.06,.31,.18,.42,.12,.11,.29,.16,.49,.16,.28,0,.51-.1,.69-.29,.18-.2,.27-.44,.27-.74v-.35Z"/><path class="cls-8" d="M82.24,201.67v-.6c.31,.23,.64,.34,1.01,.34,.49,0,.74-.16,.74-.49,0-.09-.02-.17-.06-.24-.04-.07-.1-.12-.17-.17-.07-.05-.16-.1-.25-.14-.1-.04-.2-.08-.31-.13-.16-.06-.29-.12-.41-.19s-.22-.13-.3-.21c-.08-.08-.14-.17-.18-.27-.04-.1-.06-.22-.06-.35,0-.16,.04-.31,.11-.44,.08-.13,.18-.23,.3-.32,.13-.09,.27-.15,.43-.19,.16-.04,.33-.07,.5-.07,.3,0,.58,.05,.82,.16v.57c-.26-.17-.56-.25-.89-.25-.11,0-.2,.01-.28,.04s-.16,.06-.22,.1-.11,.1-.14,.16c-.03,.06-.05,.13-.05,.2,0,.09,.02,.17,.05,.23,.03,.06,.08,.12,.15,.16s.14,.09,.23,.13c.09,.04,.2,.08,.31,.13,.16,.06,.3,.12,.42,.18,.12,.06,.23,.13,.32,.21,.09,.08,.15,.17,.2,.27,.05,.1,.07,.23,.07,.37,0,.17-.04,.33-.11,.45-.08,.13-.18,.23-.31,.32-.13,.08-.28,.15-.44,.19-.17,.04-.34,.06-.53,.06-.36,0-.68-.07-.94-.21Z"/><path class="cls-8" d="M87.07,201.76c-.13,.07-.31,.11-.53,.11-.62,0-.92-.34-.92-1.03v-2.08h-.6v-.48h.6v-.86l.56-.18v1.04h.89v.48h-.89v1.98c0,.24,.04,.4,.12,.5s.21,.15,.4,.15c.14,0,.26-.04,.37-.12v.48Z"/></g><g><path class="cls-8" d="M43.06,224.18v-.68c.08,.07,.17,.13,.28,.19s.22,.1,.34,.14c.12,.04,.24,.07,.36,.09,.12,.02,.23,.03,.34,.03,.35,0,.62-.07,.79-.2,.18-.13,.26-.32,.26-.57,0-.13-.03-.25-.09-.35-.06-.1-.14-.19-.24-.27-.1-.08-.22-.16-.37-.23-.14-.07-.29-.15-.45-.24-.17-.09-.33-.18-.48-.26s-.28-.19-.39-.3c-.11-.11-.2-.23-.26-.37-.06-.14-.09-.3-.09-.48,0-.22,.05-.42,.15-.59,.1-.17,.23-.3,.39-.41,.16-.11,.34-.19,.55-.24,.2-.05,.41-.08,.63-.08,.49,0,.84,.06,1.06,.18v.65c-.29-.2-.66-.3-1.12-.3-.13,0-.25,.01-.38,.04-.13,.03-.24,.07-.34,.13s-.18,.14-.24,.23-.09,.21-.09,.34c0,.13,.02,.23,.07,.33,.05,.09,.12,.18,.21,.25s.2,.15,.33,.22c.13,.07,.28,.15,.46,.23,.18,.09,.34,.18,.5,.27,.16,.1,.3,.2,.42,.32,.12,.12,.21,.25,.28,.39,.07,.14,.1,.3,.1,.49,0,.24-.05,.45-.14,.62s-.22,.31-.38,.41c-.16,.11-.35,.18-.56,.23s-.43,.07-.67,.07c-.08,0-.17,0-.29-.02-.11-.01-.23-.03-.35-.06-.12-.02-.23-.05-.34-.09-.11-.04-.19-.08-.26-.12Z"/><path class="cls-8" d="M49.47,224.38h-.56v-.55h-.01c-.24,.42-.61,.63-1.08,.63-.35,0-.62-.09-.82-.28s-.3-.43-.3-.74c0-.66,.39-1.04,1.16-1.15l1.05-.15c0-.6-.24-.9-.72-.9-.42,0-.81,.14-1.15,.43v-.58c.35-.22,.74-.33,1.2-.33,.83,0,1.24,.44,1.24,1.31v2.29Zm-.56-1.78l-.85,.12c-.26,.04-.46,.1-.59,.19-.13,.09-.2,.26-.2,.49,0,.17,.06,.31,.18,.42,.12,.11,.29,.16,.49,.16,.28,0,.51-.1,.69-.29,.18-.2,.27-.44,.27-.74v-.35Z"/><path class="cls-8" d="M53.33,220.86l-1.62,4.08c-.29,.73-.69,1.09-1.22,1.09-.15,0-.27-.01-.37-.04v-.5c.12,.04,.23,.06,.33,.06,.28,0,.5-.17,.64-.51l.28-.67-1.37-3.51h.62l.95,2.71s.04,.12,.07,.27h.02c.01-.05,.03-.14,.07-.26l1-2.71h.58Z"/><path class="cls-8" d="M56.54,219.37l-.37,1.53h-.52l.48-1.53h.41Zm1.04,0l-.38,1.53h-.5l.48-1.53h.4Z"/><path class="cls-8" d="M61.65,224.38h-.64l-.52-1.38h-2.09l-.49,1.38h-.64l1.89-4.92h.6l1.9,4.92Zm-1.35-1.9l-.77-2.1c-.03-.07-.05-.18-.08-.33h-.01c-.02,.14-.05,.25-.08,.33l-.77,2.1h1.71Z"/><path class="cls-8" d="M62.82,223.4c0,.32,.12,.48,.37,.48,.1,0,.19-.01,.27-.04v.51s-.1,.02-.17,.03c-.07,.01-.15,.02-.23,.02-.11,0-.22-.02-.32-.05-.1-.04-.18-.09-.26-.17-.07-.08-.13-.17-.17-.28s-.06-.25-.06-.4v-4.32h.56v4.22Z"/><path class="cls-8" d="M66.9,222.76h-2.48c0,.39,.11,.69,.32,.91,.2,.21,.48,.32,.83,.32,.4,0,.76-.13,1.09-.39v.53c-.31,.22-.72,.34-1.23,.34s-.89-.16-1.17-.48-.43-.77-.43-1.35c0-.55,.16-.99,.47-1.34,.31-.34,.7-.52,1.16-.52s.82,.15,1.07,.45c.25,.3,.38,.71,.38,1.24v.3Zm-.58-.48c0-.33-.08-.58-.24-.76s-.37-.27-.64-.27-.49,.1-.68,.29-.3,.44-.34,.75h1.9Z"/><path class="cls-8" d="M70.32,220.86l-1.18,1.78,1.16,1.74h-.66l-.69-1.14c-.04-.07-.09-.16-.15-.27h-.01s-.07,.11-.16,.27l-.7,1.14h-.65l1.2-1.72-1.15-1.79h.66l.68,1.2c.05,.09,.1,.18,.15,.27h.01l.88-1.48h.62Z"/><path class="cls-8" d="M73.5,224.38h-.56v-.55h-.01c-.24,.42-.61,.63-1.08,.63-.35,0-.62-.09-.82-.28s-.3-.43-.3-.74c0-.66,.39-1.04,1.16-1.15l1.05-.15c0-.6-.24-.9-.72-.9-.42,0-.81,.14-1.15,.43v-.58c.35-.22,.74-.33,1.2-.33,.83,0,1.24,.44,1.24,1.31v2.29Zm-.56-1.78l-.85,.12c-.26,.04-.46,.1-.59,.19-.13,.09-.2,.26-.2,.49,0,.17,.06,.31,.18,.42,.12,.11,.29,.16,.49,.16,.28,0,.51-.1,.69-.29,.18-.2,.27-.44,.27-.74v-.35Z"/><path class="cls-8" d="M75.25,219.37l-.48,1.53h-.41l.38-1.53h.5Zm1.04,0l-.48,1.53h-.41l.37-1.53h.52Z"/></g><g><path class="cls-8" d="M43.06,247.79v-.68c.08,.07,.17,.13,.28,.19s.22,.1,.34,.14c.12,.04,.24,.07,.36,.09,.12,.02,.23,.03,.34,.03,.35,0,.62-.07,.79-.2,.18-.13,.26-.32,.26-.57,0-.13-.03-.25-.09-.35-.06-.1-.14-.19-.24-.27-.1-.08-.22-.16-.37-.23-.14-.07-.29-.15-.45-.24-.17-.09-.33-.18-.48-.26s-.28-.19-.39-.3c-.11-.11-.2-.23-.26-.37-.06-.14-.09-.3-.09-.48,0-.22,.05-.42,.15-.59,.1-.17,.23-.3,.39-.41,.16-.11,.34-.19,.55-.24,.2-.05,.41-.08,.63-.08,.49,0,.84,.06,1.06,.18v.65c-.29-.2-.66-.3-1.12-.3-.13,0-.25,.01-.38,.04-.13,.03-.24,.07-.34,.13s-.18,.14-.24,.23-.09,.21-.09,.34c0,.13,.02,.23,.07,.33,.05,.09,.12,.18,.21,.25s.2,.15,.33,.22c.13,.07,.28,.15,.46,.23,.18,.09,.34,.18,.5,.27,.16,.1,.3,.2,.42,.32,.12,.12,.21,.25,.28,.39,.07,.14,.1,.3,.1,.49,0,.24-.05,.45-.14,.62s-.22,.31-.38,.41c-.16,.11-.35,.18-.56,.23s-.43,.07-.67,.07c-.08,0-.17,0-.29-.02-.11-.01-.23-.03-.35-.06-.12-.02-.23-.05-.34-.09-.11-.04-.19-.08-.26-.12Z"/><path class="cls-8" d="M49.78,246.37h-2.48c0,.39,.11,.69,.32,.91,.2,.21,.48,.32,.83,.32,.4,0,.76-.13,1.09-.39v.53c-.31,.22-.72,.34-1.23,.34s-.89-.16-1.17-.48-.43-.77-.43-1.35c0-.55,.16-.99,.47-1.34,.31-.34,.7-.52,1.16-.52s.82,.15,1.07,.45c.25,.3,.38,.71,.38,1.24v.3Zm-.58-.48c0-.33-.08-.58-.24-.76s-.37-.27-.64-.27-.49,.1-.68,.29-.3,.44-.34,.75h1.9Z"/><path class="cls-8" d="M52.26,247.95c-.13,.07-.31,.11-.53,.11-.62,0-.92-.34-.92-1.03v-2.08h-.6v-.48h.6v-.86l.56-.18v1.04h.89v.48h-.89v1.98c0,.24,.04,.4,.12,.5s.21,.15,.4,.15c.14,0,.26-.04,.37-.12v.48Z"/><path class="cls-8" d="M54.64,247.95c-.13,.07-.31,.11-.53,.11-.62,0-.92-.34-.92-1.03v-2.08h-.6v-.48h.6v-.86l.56-.18v1.04h.89v.48h-.89v1.98c0,.24,.04,.4,.12,.5s.21,.15,.4,.15c.14,0,.26-.04,.37-.12v.48Z"/><path class="cls-8" d="M55.65,243.58c-.1,0-.19-.03-.26-.1-.07-.07-.11-.16-.11-.26s.04-.19,.11-.26,.16-.1,.26-.1,.19,.03,.26,.1c.07,.07,.11,.16,.11,.26s-.04,.19-.11,.26c-.07,.07-.16,.11-.26,.11Zm.27,3.43c0,.32,.12,.48,.37,.48,.1,0,.19-.01,.27-.04v.51s-.1,.02-.17,.03c-.07,.01-.15,.02-.23,.02-.11,0-.22-.02-.32-.05-.1-.04-.18-.09-.26-.17-.07-.08-.13-.17-.17-.28s-.06-.25-.06-.4v-2.63h.56v2.53Z"/><path class="cls-8" d="M60.1,247.99h-.56v-2.01c0-.75-.27-1.12-.82-1.12-.28,0-.51,.11-.7,.32-.18,.21-.28,.48-.28,.8v2.01h-.56v-3.52h.56v.58h.01c.27-.44,.65-.67,1.15-.67,.38,0,.68,.12,.88,.37,.2,.25,.31,.61,.31,1.08v2.15Z"/><path class="cls-8" d="M64.16,247.71c0,1.29-.62,1.94-1.85,1.94-.44,0-.82-.08-1.14-.25v-.56c.4,.22,.77,.33,1.13,.33,.87,0,1.3-.46,1.3-1.38v-.38h-.01c-.27,.45-.67,.67-1.21,.67-.44,0-.79-.16-1.06-.47-.27-.31-.4-.73-.4-1.26,0-.6,.14-1.07,.43-1.43,.29-.35,.68-.53,1.18-.53s.83,.19,1.05,.57h.01v-.49h.56v3.23Zm-.56-1.31v-.52c0-.28-.09-.52-.28-.72s-.42-.3-.71-.3c-.35,0-.62,.13-.82,.38-.2,.25-.3,.61-.3,1.06,0,.39,.09,.7,.28,.94,.19,.23,.44,.35,.75,.35s.57-.11,.77-.34,.3-.51,.3-.86Z"/><path class="cls-8" d="M65.09,247.86v-.6c.31,.23,.64,.34,1.01,.34,.49,0,.74-.16,.74-.49,0-.09-.02-.17-.06-.24-.04-.07-.1-.12-.17-.17-.07-.05-.16-.1-.25-.14-.1-.04-.2-.08-.31-.13-.16-.06-.29-.12-.41-.19s-.22-.13-.3-.21c-.08-.08-.14-.17-.18-.27-.04-.1-.06-.22-.06-.35,0-.16,.04-.31,.11-.44,.08-.13,.18-.23,.3-.32,.13-.09,.27-.15,.43-.19,.16-.04,.33-.07,.5-.07,.3,0,.58,.05,.82,.16v.57c-.26-.17-.56-.25-.89-.25-.11,0-.2,.01-.28,.04s-.16,.06-.22,.1-.11,.1-.14,.16c-.03,.06-.05,.13-.05,.2,0,.09,.02,.17,.05,.23,.03,.06,.08,.12,.15,.16s.14,.09,.23,.13c.09,.04,.2,.08,.31,.13,.16,.06,.3,.12,.42,.18,.12,.06,.23,.13,.32,.21,.09,.08,.15,.17,.2,.27,.05,.1,.07,.23,.07,.37,0,.17-.04,.33-.11,.45-.08,.13-.18,.23-.31,.32-.13,.08-.28,.15-.44,.19-.17,.04-.34,.06-.53,.06-.36,0-.68-.07-.94-.21Z"/></g><path class="cls-8" d="M307.32,204.78v3.52h.82v.42h-.82v1.3h-.46v-1.3h-2.49v-.42c.23-.26,.47-.54,.7-.84,.24-.3,.47-.6,.68-.91s.42-.61,.6-.92c.18-.3,.34-.59,.46-.85h.5Zm-.46,3.52v-2.77c-.18,.31-.36,.6-.54,.87-.18,.27-.35,.52-.52,.75-.17,.23-.33,.44-.48,.63-.15,.19-.29,.36-.42,.52h1.96Z"/><g><path class="cls-8" d="M280.64,247.14v4.8h-.49v-4.8h-1.51v-.45h3.51v.45h-1.52Z"/><path class="cls-8" d="M286.73,249.84c0,1.47-.64,2.2-1.93,2.2s-1.84-.71-1.84-2.12v-3.22h.49v3.18c0,.58,.12,1.01,.35,1.29,.23,.29,.59,.43,1.08,.43,.92,0,1.38-.56,1.38-1.67v-3.23h.49v3.14Z"/><path class="cls-8" d="M288.03,251.95v-5.25h2.56v.45h-2.07v1.93h1.92v.44h-1.92v2h2.19v.44h-2.68Z"/><path class="cls-8" d="M291.59,251.18c.09,.07,.18,.13,.29,.18,.11,.05,.21,.1,.33,.13,.11,.04,.22,.06,.33,.08,.11,.02,.22,.03,.32,.03,.4,0,.7-.08,.89-.23,.2-.15,.3-.37,.3-.66,0-.14-.02-.26-.07-.36s-.12-.2-.22-.29c-.1-.09-.22-.18-.37-.27-.15-.09-.32-.19-.53-.3-.22-.12-.42-.24-.58-.35-.16-.11-.29-.22-.39-.33s-.18-.24-.22-.37c-.05-.13-.07-.28-.07-.45,0-.21,.05-.4,.14-.57,.09-.17,.21-.31,.37-.43s.33-.21,.54-.27c.21-.06,.43-.1,.66-.1,.41,0,.76,.06,1.04,.17v.54c-.31-.18-.67-.27-1.09-.27-.16,0-.3,.02-.44,.06s-.26,.09-.36,.17c-.1,.07-.19,.16-.25,.27-.06,.11-.09,.23-.09,.38s.02,.25,.06,.35c.04,.1,.1,.19,.19,.28s.21,.18,.35,.26c.15,.09,.32,.19,.53,.3,.22,.12,.41,.23,.57,.34,.16,.11,.3,.23,.41,.35,.11,.12,.19,.25,.24,.38,.05,.14,.08,.29,.08,.45,0,.23-.04,.43-.13,.61-.09,.17-.21,.32-.36,.43-.15,.11-.34,.2-.55,.26s-.45,.09-.7,.09c-.08,0-.18,0-.3-.02-.11-.01-.23-.03-.35-.06-.12-.03-.23-.06-.34-.09-.11-.04-.19-.07-.26-.12v-.57Z"/><path class="cls-8" d="M295.65,251.95v-5.25h1.38c.9,0,1.58,.22,2.04,.65s.69,1.07,.69,1.91c0,.41-.06,.77-.19,1.11-.13,.33-.31,.62-.55,.85-.24,.24-.53,.42-.88,.55-.34,.13-.73,.19-1.16,.19h-1.31Zm.49-4.8v4.36h.81c.36,0,.68-.05,.97-.15s.53-.24,.72-.43c.2-.19,.35-.42,.45-.7,.1-.28,.16-.6,.16-.96,0-1.42-.75-2.12-2.24-2.12h-.86Z"/><path class="cls-8" d="M304.09,251.95l-.58-1.55h-2.25l-.56,1.55h-.54l2-5.25h.49l1.99,5.25h-.54Zm-1.6-4.33s-.03-.1-.05-.16c-.02-.06-.03-.13-.05-.21h-.01c-.01,.08-.03,.15-.05,.21-.02,.06-.04,.11-.05,.16l-.85,2.34h1.92l-.86-2.34Z"/><path class="cls-8" d="M306.46,249.98v1.97h-.49v-1.96l-1.65-3.29h.55l1.2,2.45s.03,.07,.06,.13c.02,.06,.05,.13,.09,.22h.01s.04-.1,.06-.15,.06-.12,.1-.2l1.26-2.46h.52l-1.71,3.28Z"/></g><g><path class="cls-8" d="M286.8,242.01v-8.91c-.16,.14-.34,.27-.55,.4s-.41,.25-.62,.36-.42,.22-.63,.31c-.21,.09-.41,.17-.59,.23v-.79c.55-.18,1.07-.42,1.57-.73,.5-.31,.98-.66,1.45-1.07h.26v10.19h-.89Z"/><path class="cls-8" d="M292.13,242.01v-8.91c-.16,.14-.34,.27-.55,.4s-.41,.25-.62,.36-.42,.22-.63,.31c-.21,.09-.41,.17-.59,.23v-.79c.55-.18,1.07-.42,1.57-.73,.5-.31,.98-.66,1.45-1.07h.26v10.19h-.89Z"/><path class="cls-8" d="M296.06,236.09c-.09,0-.18-.02-.26-.05-.08-.03-.15-.08-.21-.15-.06-.06-.11-.13-.14-.22-.03-.08-.05-.17-.05-.26,0-.19,.06-.34,.19-.47s.29-.19,.47-.19c.09,0,.17,.02,.25,.05,.08,.03,.15,.08,.22,.14s.11,.13,.15,.21c.04,.08,.06,.17,.06,.27s-.02,.19-.06,.27c-.04,.08-.09,.15-.15,.21-.06,.06-.13,.11-.22,.14-.08,.03-.17,.05-.25,.05Zm0,6.06c-.19,0-.34-.06-.47-.19-.13-.13-.19-.29-.19-.47s.06-.35,.19-.48c.13-.13,.29-.19,.48-.19,.09,0,.18,.02,.26,.05,.08,.03,.15,.08,.21,.14s.11,.13,.15,.21c.04,.08,.06,.17,.06,.27s-.02,.18-.06,.26c-.04,.08-.09,.15-.15,.21s-.13,.11-.21,.14c-.08,.03-.17,.05-.26,.05Z"/><path class="cls-8" d="M300.59,242.01v-8.91c-.16,.14-.34,.27-.55,.4s-.41,.25-.62,.36-.42,.22-.63,.31c-.21,.09-.41,.17-.59,.23v-.79c.55-.18,1.07-.42,1.57-.73,.5-.31,.98-.66,1.45-1.07h.26v10.19h-.89Z"/><path class="cls-8" d="M305.92,242.01v-8.91c-.16,.14-.34,.27-.55,.4s-.41,.25-.62,.36-.42,.22-.63,.31c-.21,.09-.41,.17-.59,.23v-.79c.55-.18,1.07-.42,1.57-.73,.5-.31,.98-.66,1.45-1.07h.26v10.19h-.89Z"/></g><g><path class="cls-8" d="M285.31,226.96v-4.69c-.09,.07-.18,.14-.29,.21-.11,.07-.21,.13-.33,.19-.11,.06-.22,.11-.33,.16-.11,.05-.21,.09-.31,.12v-.41c.29-.09,.56-.22,.83-.38,.26-.16,.52-.35,.76-.56h.14v5.37h-.47Z"/><path class="cls-8" d="M286.92,225.5c0-.14,.02-.28,.06-.42,.04-.14,.1-.27,.19-.39,.08-.12,.19-.23,.31-.33,.12-.1,.26-.18,.42-.23-.24-.12-.43-.28-.57-.49-.14-.2-.21-.43-.21-.68,0-.19,.04-.37,.11-.53s.17-.31,.3-.42c.13-.12,.28-.21,.45-.28,.17-.07,.36-.1,.57-.1s.39,.03,.57,.1c.17,.07,.33,.16,.45,.28,.13,.12,.23,.26,.3,.42s.11,.34,.11,.53c0,.12-.02,.24-.05,.36-.04,.11-.09,.22-.16,.32s-.15,.19-.24,.27c-.09,.08-.2,.15-.31,.21,.16,.06,.29,.14,.41,.23,.12,.1,.22,.21,.3,.33,.08,.12,.14,.25,.18,.39,.04,.14,.06,.28,.06,.42,0,.24-.04,.45-.12,.64-.08,.19-.19,.35-.33,.49-.14,.13-.31,.24-.51,.31-.2,.07-.42,.11-.66,.11s-.45-.04-.65-.11c-.2-.07-.37-.18-.51-.31-.14-.13-.26-.3-.34-.49-.08-.19-.12-.41-.12-.64Zm.5,0c0,.17,.03,.33,.08,.47,.05,.14,.13,.26,.23,.36,.1,.1,.22,.18,.35,.23,.14,.05,.29,.08,.46,.08s.31-.03,.45-.08,.26-.13,.36-.23c.1-.1,.18-.22,.23-.36,.06-.14,.08-.3,.08-.47,0-.15-.03-.3-.08-.44-.05-.14-.13-.26-.23-.36-.1-.1-.22-.19-.35-.25s-.29-.09-.46-.09c-.16,0-.31,.03-.45,.08-.14,.06-.26,.13-.36,.23s-.18,.22-.23,.36c-.06,.14-.08,.29-.08,.46Zm.18-2.5c0,.13,.02,.26,.07,.38,.05,.12,.12,.22,.2,.3,.09,.09,.19,.15,.3,.2,.11,.05,.24,.08,.37,.08s.25-.03,.37-.08c.11-.05,.21-.12,.3-.21,.09-.09,.15-.19,.2-.31s.08-.24,.08-.37-.02-.26-.07-.38c-.05-.12-.12-.22-.2-.31-.08-.09-.18-.15-.3-.2s-.24-.07-.37-.07c-.14,0-.27,.03-.38,.08-.12,.05-.22,.12-.3,.21s-.15,.19-.19,.31-.07,.24-.07,.37Z"/><path class="cls-8" d="M296.84,226.96l-2.91-4.21c-.04-.05-.07-.11-.11-.16-.04-.06-.06-.11-.09-.16h-.02s0,.1,.01,.18,0,.18,0,.29v4.07h-.49v-5.25h.54l2.87,4.16c.04,.07,.08,.13,.12,.18s.07,.11,.1,.16h.02c0-.08-.02-.17-.02-.27,0-.1,0-.21,0-.33v-3.9h.49v5.25h-.51Z"/><path class="cls-8" d="M300.85,227.05c-.38,0-.72-.07-1.02-.21-.3-.14-.56-.33-.77-.57-.21-.24-.37-.52-.49-.84-.11-.32-.17-.67-.17-1.04,0-.41,.06-.79,.17-1.13s.28-.63,.5-.88,.48-.43,.8-.57c.31-.14,.67-.2,1.08-.2,.37,0,.7,.07,1,.2,.3,.13,.55,.32,.75,.55s.37,.51,.48,.84c.11,.32,.17,.67,.17,1.05,0,.4-.05,.77-.16,1.11-.11,.34-.27,.64-.48,.88-.21,.25-.47,.44-.78,.59s-.66,.21-1.07,.21Zm.04-4.99c-.32,0-.6,.06-.84,.18s-.45,.28-.62,.49c-.17,.21-.3,.45-.38,.72-.09,.28-.13,.57-.13,.88,0,.3,.04,.58,.12,.85s.2,.51,.36,.72c.16,.21,.36,.38,.61,.5,.24,.12,.53,.19,.86,.19s.61-.06,.86-.17c.25-.11,.45-.27,.62-.47,.17-.2,.29-.44,.38-.72,.08-.28,.13-.58,.13-.91,0-.31-.04-.6-.11-.88-.07-.28-.19-.52-.35-.72-.16-.21-.36-.37-.6-.49-.24-.12-.54-.18-.88-.18Z"/><path class="cls-8" d="M306.2,226.96h-.48l-1.91-5.25h.55l1.49,4.2c.03,.08,.05,.16,.07,.24,.02,.08,.04,.16,.05,.25h.01c.01-.07,.03-.14,.05-.23,.02-.08,.05-.17,.08-.27l1.55-4.19h.53l-1.99,5.25Z"/></g><g><path class="cls-8" d="M294.98,217.69c.35,.21,.7,.31,1.05,.31,.2,0,.38-.03,.54-.09,.16-.06,.3-.14,.41-.25,.11-.11,.2-.24,.26-.39,.06-.15,.09-.32,.09-.5,0-.39-.12-.68-.36-.88-.24-.2-.59-.3-1.05-.3-.19,0-.45,.01-.8,.04l.16-2.57h2.29v.42h-1.89l-.11,1.7c.21-.01,.38-.02,.51-.02,.28,0,.52,.04,.74,.11,.21,.07,.39,.18,.54,.31,.15,.13,.26,.3,.33,.49s.11,.41,.11,.66-.04,.48-.12,.68-.2,.38-.35,.53-.34,.26-.57,.34c-.22,.08-.48,.12-.77,.12-.43,0-.77-.07-1.03-.21v-.51Z"/><path class="cls-8" d="M300.27,218.4c-.25,0-.48-.06-.67-.17-.2-.11-.37-.28-.5-.5s-.24-.49-.31-.81c-.07-.32-.11-.7-.11-1.12,0-.93,.15-1.64,.44-2.11,.29-.47,.72-.71,1.27-.71,1.05,0,1.58,.9,1.58,2.69,0,.44-.04,.84-.11,1.18s-.19,.62-.33,.86-.32,.41-.53,.53c-.21,.12-.45,.18-.72,.18Zm.08-5.02c-.39,0-.69,.2-.89,.59-.21,.4-.31,.99-.31,1.78,0,.73,.1,1.29,.29,1.67,.2,.38,.49,.57,.87,.57,.19,0,.35-.05,.5-.15,.15-.1,.27-.24,.36-.44,.1-.19,.17-.43,.22-.71,.05-.28,.08-.61,.08-.98,0-1.56-.38-2.34-1.13-2.34Z"/><path class="cls-8" d="M303.79,215.67c-.19,0-.35-.03-.5-.1-.15-.06-.28-.15-.38-.27-.1-.12-.18-.25-.24-.42-.05-.16-.08-.34-.08-.54,0-.22,.03-.41,.09-.58s.15-.32,.26-.43c.11-.12,.24-.21,.4-.27,.15-.06,.32-.09,.51-.09s.35,.03,.49,.09c.15,.06,.27,.15,.37,.26,.1,.11,.18,.25,.24,.42,.05,.16,.08,.35,.08,.56,0,.2-.03,.38-.09,.55-.06,.17-.14,.31-.25,.43-.11,.12-.24,.22-.39,.28-.15,.07-.32,.1-.51,.1Zm.04-2.35c-.13,0-.24,.02-.35,.07s-.19,.11-.26,.2c-.07,.09-.13,.19-.16,.32s-.06,.27-.06,.43c0,.31,.07,.55,.21,.72s.34,.26,.6,.26c.13,0,.24-.02,.34-.07,.1-.05,.18-.12,.25-.2,.07-.09,.12-.19,.16-.32,.04-.12,.05-.26,.05-.42,0-.32-.07-.56-.21-.73-.14-.17-.33-.25-.58-.25Zm.04,5.07h-.44l3.26-5.32h.44l-3.26,5.32Zm2.92,0c-.18,0-.35-.03-.5-.1-.15-.06-.28-.15-.38-.27-.1-.11-.18-.25-.24-.42-.06-.16-.08-.34-.08-.54,0-.21,.03-.41,.09-.58,.06-.17,.15-.32,.26-.44,.11-.12,.24-.21,.4-.27s.33-.1,.51-.1,.35,.03,.49,.09c.15,.06,.27,.15,.37,.26,.1,.11,.18,.26,.24,.42,.05,.17,.08,.36,.08,.57,0,.2-.03,.38-.09,.55-.06,.17-.14,.31-.25,.43s-.24,.21-.39,.28c-.15,.07-.32,.1-.51,.1Zm.04-2.34c-.13,0-.24,.02-.34,.07-.1,.05-.19,.11-.26,.2s-.13,.19-.17,.32c-.04,.13-.06,.27-.06,.43s.02,.29,.06,.41c.04,.12,.09,.23,.16,.31,.07,.08,.15,.15,.25,.19s.21,.07,.34,.07,.24-.02,.34-.07c.1-.05,.18-.11,.25-.2s.12-.19,.16-.32c.04-.12,.06-.26,.06-.42,0-.32-.07-.57-.21-.73s-.34-.25-.58-.25Z"/></g><path class="cls-8" d="M290.59,218.17c-.65-.02-1.23-.22-1.63-.76-.36-.47-.4-1.02-.29-1.58,.14-.71,.49-1.33,.89-1.93,.28-.41,.6-.79,.93-1.17,.06-.07,.12-.15,.22-.03,.67,.76,1.3,1.56,1.67,2.52,.19,.49,.3,1,.18,1.53-.16,.73-.73,1.25-1.51,1.39-.15,.02-.29,.05-.44,.04Z"/><path class="cls-8" d="M299.47,210.02c-.58,0-1.16,0-1.74,0-.35,0-.67-.09-.94-.32-.29-.24-.47-.53-.52-.9-.06-.41,.03-.79,.29-1.12,.19-.24,.43-.41,.73-.49,.04-.01,.08-.02,.12-.03,.02,0,.03-.02,.04-.04,.05-.41,.26-.71,.63-.88,.31-.15,.63-.14,.94,0,.04,.02,.05,0,.06-.03,.14-.26,.35-.47,.62-.61,.4-.2,.8-.22,1.22-.06,.32,.13,.57,.35,.74,.65,.13,.23,.19,.48,.19,.75,0,.1-.01,.2-.04,.3,0,.03,0,.05,.03,.06,.41,.21,.67,.54,.77,.98,.09,.41,.01,.79-.22,1.13-.21,.31-.51,.49-.88,.56-.12,.02-.23,.03-.35,.03-.56,0-1.12,0-1.67,0h0Z"/><g><path class="cls-8" d="M195.76,200.98c0-1.36-.2-2.56-.61-3.61-.41-1.05-.98-1.93-1.72-2.63-.74-.71-1.63-1.24-2.66-1.6-1.04-.36-2.18-.54-3.44-.54-1.92,0-3.76,.45-5.52,1.36-1.77,.91-3.43,2.12-4.98,3.64v-4.25c1.52-1.3,3.17-2.3,4.97-3.02s3.82-1.08,6.08-1.08c.36,0,.7,.02,1.03,.06,.33,.04,.65,.1,.97,.18,1.48,.16,2.82,.53,4.03,1.12,1.21,.59,2.24,1.35,3.1,2.29,.86,.94,1.52,2.05,1.99,3.34,.47,1.29,.7,2.72,.7,4.29,0,1.84-.24,3.48-.72,4.94-.48,1.46-1.16,2.8-2.05,4.03-.89,1.23-1.96,2.38-3.2,3.47-1.25,1.09-2.64,2.18-4.18,3.28-1.72,1.24-3.19,2.33-4.41,3.28-1.23,.95-2.24,1.85-3.05,2.71-.81,.86-1.42,1.72-1.84,2.57-.42,.86-.69,1.82-.81,2.87-.1,.28-.16,.56-.19,.84-.03,.28-.04,.59-.04,.93h21.37v3.44h-25.41v-2.07c0-1.92,.22-3.58,.67-4.98,.45-1.41,1.15-2.72,2.11-3.95,.96-1.23,2.18-2.45,3.68-3.67,1.5-1.22,3.29-2.58,5.39-4.1,1.42-1.04,2.67-2.04,3.77-3.01,1.1-.97,2.02-1.96,2.75-2.99,.74-1.03,1.3-2.12,1.68-3.28,.38-1.16,.57-2.44,.57-3.86Z"/><path class="cls-8" d="M228.06,200.98c0-1.36-.2-2.56-.61-3.61-.41-1.05-.98-1.93-1.72-2.63-.74-.71-1.63-1.24-2.66-1.6-1.04-.36-2.18-.54-3.44-.54-1.92,0-3.76,.45-5.52,1.36-1.77,.91-3.43,2.12-4.98,3.64v-4.25c1.52-1.3,3.17-2.3,4.97-3.02s3.82-1.08,6.08-1.08c.36,0,.7,.02,1.03,.06,.33,.04,.65,.1,.97,.18,1.48,.16,2.82,.53,4.03,1.12,1.21,.59,2.24,1.35,3.1,2.29,.86,.94,1.52,2.05,1.99,3.34,.47,1.29,.7,2.72,.7,4.29,0,1.84-.24,3.48-.72,4.94-.48,1.46-1.16,2.8-2.05,4.03-.89,1.23-1.96,2.38-3.2,3.47-1.25,1.09-2.64,2.18-4.18,3.28-1.72,1.24-3.19,2.33-4.41,3.28-1.23,.95-2.24,1.85-3.05,2.71-.81,.86-1.42,1.72-1.84,2.57-.42,.86-.69,1.82-.81,2.87-.1,.28-.16,.56-.19,.84-.03,.28-.04,.59-.04,.93h21.37v3.44h-25.41v-2.07c0-1.92,.22-3.58,.67-4.98,.45-1.41,1.15-2.72,2.11-3.95,.96-1.23,2.18-2.45,3.68-3.67,1.5-1.22,3.29-2.58,5.39-4.1,1.42-1.04,2.67-2.04,3.77-3.01,1.1-.97,2.02-1.96,2.75-2.99,.74-1.03,1.3-2.12,1.68-3.28,.38-1.16,.57-2.44,.57-3.86Z"/></g><path class="cls-6" d="M130.32,195.17c3.54-3.48,7.03-7.04,10.82-10.23,2.63-2.22,3.52-4.64,3.44-8.04-.22-9.46,.01-18.93-.13-28.4-.04-2.76,.66-3.88,3.61-3.76,5.42,.21,10.87,.22,16.29,0,2.98-.12,3.75,1.05,3.6,3.78-.18,3.19-.04,6.39-.04,9.68,2.29-.18,3.04-1.71,4.1-2.71,9.26-8.73,18.45-17.53,27.7-26.27,3.8-3.59,5.73-3.6,9.51-.02,23.64,22.43,47.25,44.89,70.89,67.32"/><path class="cls-2" d="M156.3,159.53c.04,.32,.04,.63,.04,.93-.02,.79-.18,1.55-.56,2.25-.15,.27-.33,.52-.55,.74-.08,.08-.09,.08-.13-.03-.11-.33-.31-.61-.52-.87-.08-.1-.17-.19-.25-.29-.04-.04-.06-.04-.09,0-.57,.84-1.08,1.71-1.38,2.68-.18,.58-.3,1.18-.27,1.79,.04,.79,.26,1.51,.79,2.11,.01,.02,.04,.03,.02,.06-.01,.02-.04,0-.06,0-.68-.1-1.33-.29-1.95-.6-.91-.45-1.61-1.12-2.06-2.04-.27-.56-.44-1.15-.48-1.78-.04-.62-.02-1.23,.14-1.84,.05-.17,.1-.33,.17-.49,.08-.17,.18-.32,.32-.45,.51-.47,.84-1.05,1.07-1.69,.16-.44,.27-.89,.34-1.36,0-.02,0-.05,.02-.05,.04,0,.05,.03,.06,.05,.18,.27,.33,.55,.49,.83,.15,.28,.28,.57,.41,.85,.02,.05,.03,.08,.09,.03,.66-.61,1.17-1.32,1.5-2.16,.24-.59,.38-1.19,.42-1.83,.06-.98-.07-1.94-.38-2.87-.08-.24-.16-.47-.26-.69-.01-.03-.06-.07-.03-.1,.03-.03,.07,0,.11,.02,.56,.21,1.11,.45,1.64,.73,.58,.31,1.13,.65,1.65,1.06,.65,.51,1.23,1.08,1.72,1.75,.53,.71,.93,1.48,1.18,2.32,.03,.09,.05,.19,.07,.28,.02,.09,.04,.19,.06,.29,.05-.03,.08-.08,.1-.12,.21-.36,.32-.75,.39-1.16,.02-.11,.03-.22,.05-.32,0-.03,0-.07,.03-.07,.03,0,.04,.03,.05,.05,.29,.45,.57,.9,.82,1.37,.4,.73,.75,1.47,1.02,2.26,.21,.6,.38,1.22,.45,1.85,.09,.86,.07,1.72-.21,2.55-.22,.65-.56,1.23-1.02,1.74-.43,.47-.93,.86-1.49,1.17-.29,.16-.58,.31-.89,.4-.03,0-.07,.04-.1,.01-.02-.02,0-.06,.02-.09,.23-.64,.43-1.28,.52-1.96,.08-.6,.11-1.19,.07-1.79-.07-.82-.27-1.61-.6-2.36-.3-.67-.69-1.3-1.16-1.86-.38-.46-.8-.88-1.27-1.24-.02-.02-.05-.04-.1-.07Z"/><path class="cls-5" d="M145.21,235.28c0,5.47,.02,10.94,.03,16.4h118.68c-.02-17.46-.02-34.92,.02-52.38,0-2.31-.57-4.08-2.3-5.75-17.87-17.25-35.7-34.53-53.45-51.91-2.49-2.44-4.21-2.99-6.99-.29-17.68,17.2-35.48,34.29-53.31,51.33-1.99,1.9-2.74,3.89-2.71,6.59,.11,12,.05,24,.05,36.01Z"/><ellipse class="cls-4" cx="236.58" cy="190.38" rx="1.6" ry="1.95"/><path class="cls-2" d="M258.67,136c-2.62,.02-4.78-2.1-4.86-4.7-.09-2.78,2.13-4.95,4.71-5.02,2.79-.08,4.94,2.14,5.01,4.71,.08,2.82-2.22,5.03-4.86,5.01Zm.03-.53c.16-.02,.37-.02,.57-.05,.9-.13,1.68-.51,2.35-1.13,.06-.06,.07-.11,.03-.18-.2-.42-.46-.79-.82-1.1-.84-.72-1.8-.98-2.88-.75-1.06,.23-1.81,.86-2.28,1.84-.04,.08-.03,.13,.04,.19,.83,.77,1.82,1.15,2.99,1.17Zm-.03-7.27c-.97,.02-1.73,.77-1.73,1.73,0,.97,.75,1.72,1.72,1.72,.96,0,1.73-.74,1.73-1.72,0-.96-.74-1.71-1.72-1.73Z"/><g><path class="cls-2" d="M271.47,128.45c-1.04,0-1.83,.79-1.82,1.84,0,1.04,.79,1.83,1.84,1.82,1.04,0,1.82-.8,1.82-1.84,0-1.04-.8-1.82-1.84-1.82Z"/><path class="cls-2" d="M272.17,126.33c-2.67,0-4.83,2.16-4.83,4.83s2.16,4.83,4.83,4.83,4.83-2.16,4.83-4.83-2.16-4.83-4.83-4.83Zm3.09,7.61c-.18,.25-.48,.28-.73,.04-.47-.46-.94-.92-1.39-1.39-.18-.19-.31-.22-.55-.09-1.64,.84-3.61-.38-3.6-2.21,0-1.33,1.06-2.41,2.43-2.48,1.21-.07,2.35,.91,2.52,2.16,.08,.55-.03,1.05-.3,1.53-.09,.16-.07,.25,.06,.38,.49,.48,.97,.96,1.45,1.45,.22,.22,.25,.43,.11,.63Z"/></g><rect class="cls-3" x="279.55" y="128.2" width="28.44" height="5.94" rx="2.13" ry="2.13"/></svg>