<?xml version="1.0" standalone="no"?>
<!DOCTYPE svg PUBLIC "-//W3C//DTD SVG 20010904//EN"
 "http://www.w3.org/TR/2001/REC-SVG-20010904/DTD/svg10.dtd">
<svg version="1.0" xmlns="http://www.w3.org/2000/svg"
 width="700.000000pt" height="700.000000pt" viewBox="0 0 700.000000 700.000000"
 preserveAspectRatio="xMidYMid meet">
<metadata>
Created by potrace 1.14, written by Peter Selinger 2001-2017
</metadata>
<g transform="translate(0.000000,700.000000) scale(0.100000,-0.100000)"
fill="#000000" stroke="none">
<path d="M2 6828 l3 -173 75 0 75 0 0 -1490 0 -1490 -60 -1 c-33 -1 -68 -2
-77 -3 -16 -1 -18 -16 -18 -171 l0 -170 28 -1 c15 -1 51 -1 80 0 l52 0 -2
-1492 -3 -1492 -77 1 -78 0 0 -173 0 -173 173 2 172 3 0 75 0 75 1463 3 c1166
2 1462 0 1463 -10 1 -7 1 -43 1 -81 l1 -67 173 0 174 0 0 80 0 80 1518 0 1517
0 0 -80 -1 -80 173 0 173 0 -2 173 -3 172 -65 1 c-36 1 -71 2 -77 3 -10 1 -13
306 -13 1490 l0 1489 68 0 c37 0 73 1 80 1 9 1 12 42 12 171 0 155 -2 170 -17
171 -10 1 -46 1 -80 1 l-63 0 0 1492 0 1492 80 -1 80 -2 0 174 0 173 -172 -2
-173 -3 0 -75 0 -75 -1517 -3 -1518 -2 0 80 0 80 -173 0 -174 0 2 -67 c0 -38
-1 -74 -3 -80 -3 -10 -305 -13 -1466 -13 l-1462 0 1 80 1 80 -173 0 -173 0 2
-172z m3269 -20 c3 -4 4 -39 2 -78 -1 -49 2 -70 10 -71 7 -1 85 -2 175 -3
l162 -1 0 80 0 80 1512 -1 c832 -1 1515 -2 1518 -3 3 0 5 -36 5 -78 l0 -78 70
-1 c39 -1 75 -2 80 -3 7 -1 10 -504 10 -1488 l-1 -1488 -49 -1 c-28 -1 -64 -2
-80 -3 l-30 -1 0 -170 c0 -145 2 -170 15 -171 8 0 44 -2 80 -2 l64 -2 1 -1488
c0 -1315 -2 -1487 -15 -1488 -8 -1 -40 -2 -70 -3 -30 -1 -60 -4 -66 -8 -6 -4
-10 -36 -9 -78 1 -38 -1 -70 -4 -71 -3 -1 -685 -2 -1516 -3 l-1510 -1 -5 80
-5 80 -160 1 c-88 0 -165 -1 -172 -4 -7 -2 -11 -28 -9 -78 1 -41 0 -74 -3 -75
-4 -1 -662 -2 -1464 -3 -965 -1 -1457 2 -1458 9 -1 6 -3 37 -4 70 -1 33 -3 65
-4 72 -1 8 -24 11 -76 9 -41 -2 -76 -1 -76 3 -3 17 -4 2958 -1 2968 2 6 22 11
45 11 23 0 58 1 77 1 l36 1 0 170 c-1 164 -1 170 -21 171 -11 1 -47 2 -80 3
l-60 1 0 1487 c0 1314 2 1487 15 1490 8 2 44 3 80 3 l66 -1 -1 75 c-1 66 2 77
18 81 30 8 2902 6 2908 -2z"/>
<path d="M2303 5967 c-5 -8 -5 -34 -3 -327 l1 -145 77 -81 c42 -44 140 -147
217 -229 77 -82 176 -187 220 -233 l80 -83 -2 513 c-1 282 -2 531 -2 553 l-1
40 -291 0 c-160 0 -293 -4 -296 -8z"/>
<path d="M2989 5972 c-12 -2 -14 -309 -12 -2250 0 -1236 2 -2252 2 -2258 1 -7
135 122 299 285 l297 297 898 -2 c493 -2 897 0 897 2 0 3 -6 11 -12 18 -7 7
-53 57 -103 111 -49 54 -99 108 -110 120 -11 11 -63 68 -115 125 -52 57 -104
114 -115 126 -36 38 -220 237 -238 257 -14 17 -185 201 -222 241 -6 6 -39 43
-75 81 -35 39 -109 119 -164 179 -56 60 -105 114 -111 120 -5 7 -37 40 -70 74
l-60 62 698 698 c383 383 697 699 697 702 0 3 -187 5 -416 5 l-415 0 -485
-484 -484 -485 0 990 0 989 -283 0 c-156 0 -290 -1 -298 -3z"/>
<path d="M2300 5228 c0 -163 -1 -2842 0 -3873 l0 -585 298 298 297 297 -1
1688 -2 1689 -43 46 c-24 26 -46 49 -49 52 -3 3 -50 54 -105 114 -55 61 -107
117 -115 126 -54 58 -214 232 -244 265 l-36 40 0 -157z"/>
</g>
</svg>
